<svg>
	<symbol id="icon-autocard" viewBox="0 0 15 15" xmlns="http://www.w3.org/2000/svg">
		<path fill-rule="evenodd" clip-rule="evenodd" d="M13.3213 4.10853C13.5596 4.34683 13.5596 4.73177 13.3213 4.97007L12.2031 6.08825L9.91174 3.7969L11.0299 2.67873C11.2682 2.44042 11.6532 2.44042 11.8915 2.67873L13.3213 4.10853ZM2.5 13.5V11.2086L9.25795 4.4507L11.5493 6.74205L4.79135 13.5H2.5Z"/>
	</symbol>
	<symbol id="icon-autolist" viewBox="0 0 17 16" xmlns="http://www.w3.org/2000/svg">
		<path fill-rule="evenodd" clip-rule="evenodd" d="M2.5 3.5V4.85714H7.83333V3.5H2.5ZM7.83333 7.57142H2.5V6.21428H7.83333V7.57142ZM2.5 10.2857H7.83333V8.92857H2.5V10.2857ZM2.5 13H7.83333V11.6429H2.5V13ZM14.5 3.5H9.16663V13H14.5V3.5Z"/>
	</symbol>
	<symbol id="icon-orderslist" viewBox="0 0 13 12" xmlns="http://www.w3.org/2000/svg">
		<path fill-rule="evenodd" clip-rule="evenodd" d="M7.5 1H3.5C2.95 1 2.505 1.45 2.505 2L2.5 10C2.5 10.55 2.945 11 3.495 11H9.5C10.05 11 10.5 10.55 10.5 10V4L7.5 1ZM8.5 8H7V9.5H6V8H4.5V7H6V5.5H7V7H8.5V8ZM7 1.75V4.5H9.75L7 1.75Z"/>
	</symbol>
	<symbol id="icon-search" viewBox="0 0 15 14" xmlns="http://www.w3.org/2000/svg">
		<path fill-rule="evenodd" clip-rule="evenodd" d="M9.87336 8.80503H10.5057L14.5 12.8073L13.3073 14L9.30503 10.0057V9.37336L9.08891 9.14923C8.17639 9.93368 6.99171 10.4059 5.70297 10.4059C2.82933 10.4059 0.5 8.07662 0.5 5.20297C0.5 2.32933 2.82933 0 5.70297 0C8.57662 0 10.9059 2.32933 10.9059 5.20297C10.9059 6.49171 10.4337 7.67639 9.64923 8.58891L9.87336 8.80503ZM2.19702 5.30302C2.19702 7.29837 3.80773 8.90908 5.80308 8.90908C7.79844 8.90908 9.40914 7.29837 9.40914 5.30302C9.40914 3.30767 7.79844 1.69696 5.80308 1.69696C3.80773 1.69696 2.19702 3.30767 2.19702 5.30302Z"/>
	</symbol>
	<symbol id="icon-bell" viewBox="0 0 18 21" xmlns="http://www.w3.org/2000/svg">
		<path fill-rule="evenodd" clip-rule="evenodd" d="M15.375 9.04949V14.3727L17.5 16.502V17.5667H0.5V16.502L2.625 14.3727V9.04949C2.625 5.77038 4.35687 3.04489 7.40625 2.32093V1.59697C7.40625 0.713313 8.11812 0 9 0C9.88188 0 10.5938 0.713313 10.5938 1.59697V2.32093C13.6325 3.04489 15.375 5.78103 15.375 9.04949ZM11.2667 18.7C11.2667 19.9467 10.2467 20.9667 9 20.9667C7.742 20.9667 6.73334 19.9467 6.73334 18.7H11.2667Z"/>
	</symbol>
	<symbol id="icon-approve" viewBox="0 0 12 7" xmlns="http://www.w3.org/2000/svg">
		<path d="M2.59804 5.12826L0.691473 3.10701L0.0422363 3.79045L2.59804 6.5L8.08454 0.683445L7.43988 0L2.59804 5.12826Z" fill="#17C671"/>
	</symbol>
	<symbol id="icon-reject" viewBox="0 0 12 11" xmlns="http://www.w3.org/2000/svg">
		<path d="M8.63858 3.205L7.97154 2.5L5.32704 5.295L2.68254 2.5L2.0155 3.205L4.66 6L2.0155 8.795L2.68254 9.5L5.32704 6.705L7.97154 9.5L8.63858 8.795L5.99408 6L8.63858 3.205Z" fill="#C4183C"/>
	</symbol>
	<symbol id="icon-edit" viewBox="0 0 12 11" xmlns="http://www.w3.org/2000/svg">
		<path fill-rule="evenodd" clip-rule="evenodd" d="M6.32677 4C6.84715 4 7.27292 3.55 7.27292 3C7.27292 2.45 6.84715 2 6.32677 2C5.80638 2 5.38062 2.45 5.38062 3C5.38062 3.55 5.80638 4 6.32677 4ZM6.32677 5C5.80638 5 5.38062 5.45 5.38062 6C5.38062 6.55 5.80638 7 6.32677 7C6.84715 7 7.27292 6.55 7.27292 6C7.27292 5.45 6.84715 5 6.32677 5ZM5.38062 9C5.38062 8.45 5.80638 8 6.32677 8C6.84715 8 7.27292 8.45 7.27292 9C7.27292 9.55 6.84715 10 6.32677 10C5.80638 10 5.38062 9.55 5.38062 9Z" fill="#818EA3"/>
	</symbol>
</svg>
