<svg>
	<symbol id="icon-autocard" viewBox="0 0 15 15" xmlns="http://www.w3.org/2000/svg">
		<path fill-rule="evenodd" clip-rule="evenodd" d="M13.3213 4.10853C13.5596 4.34683 13.5596 4.73177 13.3213 4.97007L12.2031 6.08825L9.91174 3.7969L11.0299 2.67873C11.2682 2.44042 11.6532 2.44042 11.8915 2.67873L13.3213 4.10853ZM2.5 13.5V11.2086L9.25795 4.4507L11.5493 6.74205L4.79135 13.5H2.5Z"/>
	</symbol>
	<symbol id="icon-search" viewBox="0 0 15 14" xmlns="http://www.w3.org/2000/svg">
		<path fill-rule="evenodd" clip-rule="evenodd" d="M9.87336 8.80503H10.5057L14.5 12.8073L13.3073 14L9.30503 10.0057V9.37336L9.08891 9.14923C8.17639 9.93368 6.99171 10.4059 5.70297 10.4059C2.82933 10.4059 0.5 8.07662 0.5 5.20297C0.5 2.32933 2.82933 0 5.70297 0C8.57662 0 10.9059 2.32933 10.9059 5.20297C10.9059 6.49171 10.4337 7.67639 9.64923 8.58891L9.87336 8.80503ZM2.19702 5.30302C2.19702 7.29837 3.80773 8.90908 5.80308 8.90908C7.79844 8.90908 9.40914 7.29837 9.40914 5.30302C9.40914 3.30767 7.79844 1.69696 5.80308 1.69696C3.80773 1.69696 2.19702 3.30767 2.19702 5.30302Z"/>
	</symbol>
	<symbol id="icon-bell" viewBox="0 0 18 21" xmlns="http://www.w3.org/2000/svg">
		<path fill-rule="evenodd" clip-rule="evenodd" d="M15.375 9.04949V14.3727L17.5 16.502V17.5667H0.5V16.502L2.625 14.3727V9.04949C2.625 5.77038 4.35687 3.04489 7.40625 2.32093V1.59697C7.40625 0.713313 8.11812 0 9 0C9.88188 0 10.5938 0.713313 10.5938 1.59697V2.32093C13.6325 3.04489 15.375 5.78103 15.375 9.04949ZM11.2667 18.7C11.2667 19.9467 10.2467 20.9667 9 20.9667C7.742 20.9667 6.73334 19.9467 6.73334 18.7H11.2667Z"/>
	</symbol>
	<symbol id="icon-approve" viewBox="0 0 12 7" xmlns="http://www.w3.org/2000/svg">
		<path d="M2.59804 5.12826L0.691473 3.10701L0.0422363 3.79045L2.59804 6.5L8.08454 0.683445L7.43988 0L2.59804 5.12826Z" fill="#17C671"/>
	</symbol>
	<symbol id="icon-reject" viewBox="0 0 12 11" xmlns="http://www.w3.org/2000/svg">
		<path d="M8.63858 3.205L7.97154 2.5L5.32704 5.295L2.68254 2.5L2.0155 3.205L4.66 6L2.0155 8.795L2.68254 9.5L5.32704 6.705L7.97154 9.5L8.63858 8.795L5.99408 6L8.63858 3.205Z" fill="#C4183C"/>
	</symbol>
	<symbol id="icon-edit" viewBox="0 0 12 11" xmlns="http://www.w3.org/2000/svg">
		<path fill-rule="evenodd" clip-rule="evenodd" d="M6.32677 4C6.84715 4 7.27292 3.55 7.27292 3C7.27292 2.45 6.84715 2 6.32677 2C5.80638 2 5.38062 2.45 5.38062 3C5.38062 3.55 5.80638 4 6.32677 4ZM6.32677 5C5.80638 5 5.38062 5.45 5.38062 6C5.38062 6.55 5.80638 7 6.32677 7C6.84715 7 7.27292 6.55 7.27292 6C7.27292 5.45 6.84715 5 6.32677 5ZM5.38062 9C5.38062 8.45 5.80638 8 6.32677 8C6.84715 8 7.27292 8.45 7.27292 9C7.27292 9.55 6.84715 10 6.32677 10C5.80638 10 5.38062 9.55 5.38062 9Z" fill="#818EA3"/>
	</symbol>
	<symbol id="icon-bars" width="32" height="32" viewBox="0 0 32 32" fill="none" xmlns="http://www.w3.org/2000/svg">
		<path d="M5.56689 16H24.5669" stroke="#999999" stroke-width="3" stroke-linecap="round" stroke-linejoin="round"/>
		<path d="M5.56689 8H24.5669" stroke="#999999" stroke-width="3" stroke-linecap="round" stroke-linejoin="round"/>
		<path d="M5.56689 24H24.5669" stroke="#999999" stroke-width="3" stroke-linecap="round" stroke-linejoin="round"/>
	</symbol>
	<symbol id="icon-x" width="32" height="32" viewBox="0 0 32 32" fill="none" xmlns="http://www.w3.org/2000/svg">
		<path d="M24 8L8 24" stroke="#999999" stroke-width="3" stroke-linecap="round" stroke-linejoin="round"/>
		<path d="M8 8L24 24" stroke="#999999" stroke-width="3" stroke-linecap="round" stroke-linejoin="round"/>
	</symbol>
	<symbol xmlns="http://www.w3.org/2000/svg" viewBox="0 0 512 512" id="icon-cars">
		<path d="M39.61 196.8L74.8 96.29C88.27 57.78 124.6 32 165.4 32H346.6C387.4 32 423.7 57.78 437.2 96.29L472.4 196.8C495.6 206.4 512 229.3 512 256V448C512 465.7 497.7 480 480 480H448C430.3 480 416 465.7 416 448V400H96V448C96 465.7 81.67 480 64 480H32C14.33 480 0 465.7 0 448V256C0 229.3 16.36 206.4 39.61 196.8V196.8zM109.1 192H402.9L376.8 117.4C372.3 104.6 360.2 96 346.6 96H165.4C151.8 96 139.7 104.6 135.2 117.4L109.1 192zM96 256C78.33 256 64 270.3 64 288C64 305.7 78.33 320 96 320C113.7 320 128 305.7 128 288C128 270.3 113.7 256 96 256zM416 320C433.7 320 448 305.7 448 288C448 270.3 433.7 256 416 256C398.3 256 384 270.3 384 288C384 305.7 398.3 320 416 320z"/>
	</symbol>
	<symbol xmlns="http://www.w3.org/2000/svg" viewBox="0 0 640 512" id="icon-cities">
		<path d="M480 192H592C618.5 192 640 213.5 640 240V464C640 490.5 618.5 512 592 512H48C21.49 512 0 490.5 0 464V144C0 117.5 21.49 96 48 96H64V24C64 10.75 74.75 0 88 0C101.3 0 112 10.75 112 24V96H176V24C176 10.75 186.7 0 200 0C213.3 0 224 10.75 224 24V96H288V48C288 21.49 309.5 0 336 0H432C458.5 0 480 21.49 480 48V192zM576 368C576 359.2 568.8 352 560 352H528C519.2 352 512 359.2 512 368V400C512 408.8 519.2 416 528 416H560C568.8 416 576 408.8 576 400V368zM240 416C248.8 416 256 408.8 256 400V368C256 359.2 248.8 352 240 352H208C199.2 352 192 359.2 192 368V400C192 408.8 199.2 416 208 416H240zM128 368C128 359.2 120.8 352 112 352H80C71.16 352 64 359.2 64 368V400C64 408.8 71.16 416 80 416H112C120.8 416 128 408.8 128 400V368zM528 256C519.2 256 512 263.2 512 272V304C512 312.8 519.2 320 528 320H560C568.8 320 576 312.8 576 304V272C576 263.2 568.8 256 560 256H528zM256 176C256 167.2 248.8 160 240 160H208C199.2 160 192 167.2 192 176V208C192 216.8 199.2 224 208 224H240C248.8 224 256 216.8 256 208V176zM80 160C71.16 160 64 167.2 64 176V208C64 216.8 71.16 224 80 224H112C120.8 224 128 216.8 128 208V176C128 167.2 120.8 160 112 160H80zM256 272C256 263.2 248.8 256 240 256H208C199.2 256 192 263.2 192 272V304C192 312.8 199.2 320 208 320H240C248.8 320 256 312.8 256 304V272zM112 320C120.8 320 128 312.8 128 304V272C128 263.2 120.8 256 112 256H80C71.16 256 64 263.2 64 272V304C64 312.8 71.16 320 80 320H112zM416 272C416 263.2 408.8 256 400 256H368C359.2 256 352 263.2 352 272V304C352 312.8 359.2 320 368 320H400C408.8 320 416 312.8 416 304V272zM368 64C359.2 64 352 71.16 352 80V112C352 120.8 359.2 128 368 128H400C408.8 128 416 120.8 416 112V80C416 71.16 408.8 64 400 64H368zM416 176C416 167.2 408.8 160 400 160H368C359.2 160 352 167.2 352 176V208C352 216.8 359.2 224 368 224H400C408.8 224 416 216.8 416 208V176z"/>
	</symbol>
	<symbol xmlns="http://www.w3.org/2000/svg" viewBox="0 0 384 512" id="icon-pickuppoints">
		<path d="M168.3 499.2C116.1 435 0 279.4 0 192C0 85.96 85.96 0 192 0C298 0 384 85.96 384 192C384 279.4 267 435 215.7 499.2C203.4 514.5 180.6 514.5 168.3 499.2H168.3zM192 256C227.3 256 256 227.3 256 192C256 156.7 227.3 128 192 128C156.7 128 128 156.7 128 192C128 227.3 156.7 256 192 256z"/>
	</symbol>
	<symbol xmlns="http://www.w3.org/2000/svg" viewBox="0 0 384 512" id="icon-rates">
		<path d="M374.6 73.39c-12.5-12.5-32.75-12.5-45.25 0l-320 320c-12.5 12.5-12.5 32.75 0 45.25C15.63 444.9 23.81 448 32 448s16.38-3.125 22.62-9.375l320-320C387.1 106.1 387.1 85.89 374.6 73.39zM64 192c35.3 0 64-28.72 64-64S99.3 64.01 64 64.01S0 92.73 0 128S28.7 192 64 192zM320 320c-35.3 0-64 28.72-64 64s28.7 64 64 64s64-28.72 64-64S355.3 320 320 320z"/>
	</symbol>
	<symbol xmlns="http://www.w3.org/2000/svg" viewBox="0 0 512 512" id="icon-orders">
		<path d="M0 96C0 60.65 28.65 32 64 32H448C483.3 32 512 60.65 512 96V416C512 451.3 483.3 480 448 480H64C28.65 480 0 451.3 0 416V96zM64 160H128V96H64V160zM448 96H192V160H448V96zM64 288H128V224H64V288zM448 224H192V288H448V224zM64 416H128V352H64V416zM448 352H192V416H448V352z"/>
	</symbol>
	<symbol xmlns="http://www.w3.org/2000/svg" viewBox="0 0 384 512" id="icon-typerates">
		<path d="M336 0h-288C22.38 0 0 22.38 0 48v416C0 489.6 22.38 512 48 512h288c25.62 0 48-22.38 48-48v-416C384 22.38 361.6 0 336 0zM64 208C64 199.2 71.2 192 80 192h32C120.8 192 128 199.2 128 208v32C128 248.8 120.8 256 112 256h-32C71.2 256 64 248.8 64 240V208zM64 304C64 295.2 71.2 288 80 288h32C120.8 288 128 295.2 128 304v32C128 344.8 120.8 352 112 352h-32C71.2 352 64 344.8 64 336V304zM224 432c0 8.801-7.199 16-16 16h-128C71.2 448 64 440.8 64 432v-32C64 391.2 71.2 384 80 384h128c8.801 0 16 7.199 16 16V432zM224 336c0 8.801-7.199 16-16 16h-32C167.2 352 160 344.8 160 336v-32C160 295.2 167.2 288 176 288h32C216.8 288 224 295.2 224 304V336zM224 240C224 248.8 216.8 256 208 256h-32C167.2 256 160 248.8 160 240v-32C160 199.2 167.2 192 176 192h32C216.8 192 224 199.2 224 208V240zM320 432c0 8.801-7.199 16-16 16h-32c-8.799 0-16-7.199-16-16v-32c0-8.801 7.201-16 16-16h32c8.801 0 16 7.199 16 16V432zM320 336c0 8.801-7.199 16-16 16h-32c-8.799 0-16-7.199-16-16v-32C256 295.2 263.2 288 272 288h32C312.8 288 320 295.2 320 304V336zM320 240C320 248.8 312.8 256 304 256h-32C263.2 256 256 248.8 256 240v-32C256 199.2 263.2 192 272 192h32C312.8 192 320 199.2 320 208V240zM320 144C320 152.8 312.8 160 304 160h-224C71.2 160 64 152.8 64 144v-64C64 71.2 71.2 64 80 64h224C312.8 64 320 71.2 320 80V144z"/>
	</symbol>
	<symbol xmlns="http://www.w3.org/2000/svg" viewBox="0 0 640 512" id="icon-categories">
		<path d="M368 0C394.5 0 416 21.49 416 48V96H466.7C483.7 96 499.1 102.7 512 114.7L589.3 192C601.3 204 608 220.3 608 237.3V352C625.7 352 640 366.3 640 384C640 401.7 625.7 416 608 416H576C576 469 533 512 480 512C426.1 512 384 469 384 416H256C256 469 213 512 160 512C106.1 512 64 469 64 416H48C21.49 416 0 394.5 0 368V48C0 21.49 21.49 0 48 0H368zM416 160V256H544V237.3L466.7 160H416zM160 368C133.5 368 112 389.5 112 416C112 442.5 133.5 464 160 464C186.5 464 208 442.5 208 416C208 389.5 186.5 368 160 368zM480 464C506.5 464 528 442.5 528 416C528 389.5 506.5 368 480 368C453.5 368 432 389.5 432 416C432 442.5 453.5 464 480 464z"/>
	</symbol>
	<symbol xmlns="http://www.w3.org/2000/svg" viewBox="0 0 448 512" id="icon-orderstatus">
		<path d="M384 32C419.3 32 448 60.65 448 96V416C448 451.3 419.3 480 384 480H64C28.65 480 0 451.3 0 416V96C0 60.65 28.65 32 64 32H384zM339.8 211.8C350.7 200.9 350.7 183.1 339.8 172.2C328.9 161.3 311.1 161.3 300.2 172.2L192 280.4L147.8 236.2C136.9 225.3 119.1 225.3 108.2 236.2C97.27 247.1 97.27 264.9 108.2 275.8L172.2 339.8C183.1 350.7 200.9 350.7 211.8 339.8L339.8 211.8z"/>
	</symbol>
</svg>
